<?xml version="1.0" encoding="UTF-8"?>
<!DOCTYPE svg PUBLIC "-//W3C//DTD SVG 1.1//EN" "http://www.w3.org/Graphics/SVG/1.1/DTD/svg11.dtd">
<svg xmlns="http://www.w3.org/2000/svg" version="1.1" width="59px" height="60px" style="shape-rendering:geometricPrecision; text-rendering:geometricPrecision; image-rendering:optimizeQuality; fill-rule:evenodd; clip-rule:evenodd" xmlns:xlink="http://www.w3.org/1999/xlink">
<g><path style="opacity:1" fill="#d6d6d6" d="M -0.5,-0.5 C 19.1667,-0.5 38.8333,-0.5 58.5,-0.5C 58.5,19.5 58.5,39.5 58.5,59.5C 38.8333,59.5 19.1667,59.5 -0.5,59.5C -0.5,39.5 -0.5,19.5 -0.5,-0.5 Z"/></g>
<g><path style="opacity:1" fill="#4f504f" d="M 30.5,4.5 C 31.4916,4.32842 32.1583,4.66175 32.5,5.5C 31.5084,5.32842 30.8417,5.66175 30.5,6.5C 26.7113,5.40393 26.7113,4.73727 30.5,4.5 Z"/></g>
<g><path style="opacity:1" fill="#b6b6b6" d="M 30.5,4.5 C 26.7113,4.73727 26.7113,5.40393 30.5,6.5C 32.8504,8.21328 33.8504,10.5466 33.5,13.5C 30.8602,13.046 28.5268,11.8793 26.5,10C 24.5,9.33333 22.5,9.33333 20.5,10C 21.056,10.3826 21.3893,10.8826 21.5,11.5C 19.9519,11.1788 19.2852,10.1788 19.5,8.5C 23.2629,8.71232 25.2629,7.37899 25.5,4.5C 27.2985,3.21214 28.9652,3.21214 30.5,4.5 Z"/></g>
<g><path style="opacity:1" fill="#191a19" d="M 32.5,5.5 C 37.0397,11.3855 42.0397,17.0522 47.5,22.5C 46.7375,23.2679 45.7375,23.7679 44.5,24C 45.1667,24.3333 45.8333,24.6667 46.5,25C 44.6183,25.1981 42.9516,25.6981 41.5,26.5C 40.9569,26.56 40.6236,26.8933 40.5,27.5C 41.9492,28.1719 43.2825,28.8386 44.5,29.5C 43.8333,30.1667 43.1667,30.8333 42.5,31.5C 40.8007,31.4729 39.4674,30.8062 38.5,29.5C 36.7839,29.3713 35.1172,29.038 33.5,28.5C 32.791,27.596 31.791,27.2627 30.5,27.5C 30.2155,29.4147 30.5489,31.0813 31.5,32.5C 33.8333,34.1667 35.8333,36.1667 37.5,38.5C 37.6323,41.5701 37.299,44.5701 36.5,47.5C 35.2921,50.0442 33.2921,51.3775 30.5,51.5C 30.4929,46.3229 27.9929,42.9896 23,41.5C 21.699,41.6387 20.8656,42.3054 20.5,43.5C 19.8333,43.8333 19.1667,44.1667 18.5,44.5C 19.4422,41.5804 20.7755,38.9138 22.5,36.5C 19.9616,37.0427 17.6282,38.0427 15.5,39.5C 15.3975,36.7814 15.7308,34.1147 16.5,31.5C 15.4529,29.9436 14.7863,28.2769 14.5,26.5C 15.2279,24.2654 16.5612,22.4321 18.5,21C 17.376,20.7508 16.376,20.2508 15.5,19.5C 16.8908,17.1097 18.8908,15.4431 21.5,14.5C 22.7759,13.3864 22.7759,12.3864 21.5,11.5C 21.3893,10.8826 21.056,10.3826 20.5,10C 22.5,9.33333 24.5,9.33333 26.5,10C 28.5268,11.8793 30.8602,13.046 33.5,13.5C 33.8504,10.5466 32.8504,8.21328 30.5,6.5C 30.8417,5.66175 31.5084,5.32842 32.5,5.5 Z"/></g>
<g><path style="opacity:1" fill="#666867" d="M 37.5,17.5 C 38.5,17.5 39.5,17.5 40.5,17.5C 39.7542,21.31 38.7542,21.31 37.5,17.5 Z"/></g>
<g><path style="opacity:1" fill="#454746" d="M 47.5,22.5 C 48.6857,23.7054 48.6857,25.0387 47.5,26.5C 45.7033,26.9349 43.7033,26.9349 41.5,26.5C 42.9516,25.6981 44.6183,25.1981 46.5,25C 45.8333,24.6667 45.1667,24.3333 44.5,24C 45.7375,23.7679 46.7375,23.2679 47.5,22.5 Z"/></g>
<g><path style="opacity:1" fill="#9a9b9a" d="M 41.5,26.5 C 43.7033,26.9349 45.7033,26.9349 47.5,26.5C 47.1898,28.1436 46.1898,29.1436 44.5,29.5C 43.2825,28.8386 41.9492,28.1719 40.5,27.5C 40.6236,26.8933 40.9569,26.56 41.5,26.5 Z"/></g>
<g><path style="opacity:1" fill="#6b6c6c" d="M 33.5,28.5 C 31.8235,29.1834 31.1568,30.5168 31.5,32.5C 30.5489,31.0813 30.2155,29.4147 30.5,27.5C 31.791,27.2627 32.791,27.596 33.5,28.5 Z"/></g>
<g><path style="opacity:1" fill="#4d4d4d" d="M 38.5,29.5 C 39.4674,30.8062 40.8007,31.4729 42.5,31.5C 42.6309,32.3764 42.2975,33.0431 41.5,33.5C 39.4501,32.9234 38.4501,31.5901 38.5,29.5 Z"/></g>
<g><path style="opacity:1" fill="#828483" d="M 25.5,14.5 C 31.5807,14.2321 33.914,16.8987 32.5,22.5C 32.0244,19.8809 30.6911,17.8809 28.5,16.5C 28.7712,19.5158 27.6045,22.1825 25,24.5C 24.0037,28.2072 24.6704,31.5405 27,34.5C 29,36.5 31,38.5 33,40.5C 33.6667,41.8333 33.6667,43.1667 33,44.5C 29.8696,39.9559 26.5363,35.6226 23,31.5C 22.0457,26.8646 23.2123,22.8646 26.5,19.5C 25.6906,17.9291 25.3573,16.2624 25.5,14.5 Z"/></g>
<g><path style="opacity:1" fill="#757675" d="M 14.5,26.5 C 14.7863,28.2769 15.4529,29.9436 16.5,31.5C 15.7308,34.1147 15.3975,36.7814 15.5,39.5C 14.2243,36.9697 14.2243,34.3031 15.5,31.5C 13.516,29.9536 13.1826,28.2869 14.5,26.5 Z"/></g>
<g><path style="opacity:1" fill="#9fa09f" d="M 18.5,44.5 C 18.5,44.8333 18.5,45.1667 18.5,45.5C 17.522,43.5439 16.522,41.5439 15.5,39.5C 17.6282,38.0427 19.9616,37.0427 22.5,36.5C 20.7755,38.9138 19.4422,41.5804 18.5,44.5 Z"/></g>
<g><path style="opacity:1" fill="#6b6b6b" d="M 37.5,38.5 C 38.6341,40.9664 38.8007,43.633 38,46.5C 37.6174,47.056 37.1174,47.3893 36.5,47.5C 37.299,44.5701 37.6323,41.5701 37.5,38.5 Z"/></g>
<g><path style="opacity:1" fill="#373737" d="M 20.5,43.5 C 20.5,44.5 20.5,45.5 20.5,46.5C 22.4147,46.2155 24.0813,46.5489 25.5,47.5C 26.494,49.3344 26.494,51.0011 25.5,52.5C 23.8211,52.1077 22.1545,51.6077 20.5,51C 20.9574,50.586 21.2907,50.086 21.5,49.5C 20.4756,48.1482 19.4756,46.8149 18.5,45.5C 18.5,45.1667 18.5,44.8333 18.5,44.5C 19.1667,44.1667 19.8333,43.8333 20.5,43.5 Z"/></g>
<g><path style="opacity:1" fill="#7c7c7c" d="M 25.5,47.5 C 27.6157,49.0881 27.949,51.0881 26.5,53.5C 25.8933,53.3764 25.56,53.0431 25.5,52.5C 26.494,51.0011 26.494,49.3344 25.5,47.5 Z"/></g>
</svg>
